<svg width="178" height="44" viewBox="0 0 178 44" fill="none" xmlns="http://www.w3.org/2000/svg">
<path fill-rule="evenodd" clip-rule="evenodd" d="M71 21.9366V15.9683H78.5974C76.2853 22.3717 75.77 27.0139 77.2929 30.1857L77.3629 30.3223C79.5933 34.4129 83.774 35.007 88.4203 32.5228C89.8797 31.7426 90.4269 29.9332 89.6425 28.4815C88.858 27.0298 87.0391 26.4855 85.5797 27.2658C83.6202 28.3135 83.104 28.2801 82.6767 27.5472C81.8967 25.7627 82.79 21.1332 85.7627 14.1474C86.6 12.1798 85.148 10 83 10H68C66.3431 10 65 11.336 65 12.9841V21.9366C65 23.5847 66.3431 24.9207 68 24.9207C69.6569 24.9207 71 23.5847 71 21.9366ZM72 31C72 33.2091 70.2091 35 68 35C65.7909 35 64 33.2091 64 31C64 28.7909 65.7909 27 68 27C70.2091 27 72 28.7909 72 31Z" fill="#2C2738"/>
<path fill-rule="evenodd" clip-rule="evenodd" d="M101.415 31.6373H97V15.77H101.415V19.2155H101.564C101.922 17.4625 103.116 15.77 105.562 15.77H106.338V19.9409H105.234C102.668 19.9409 101.415 20.5151 101.415 22.3587V31.6373ZM114.823 32C110.02 32 107.305 28.7661 107.305 23.6886C107.305 18.6715 109.93 15.4074 114.644 15.4074C119.835 15.4074 121.923 19.2155 121.923 23.5072V24.8371H111.869V25.0788C111.869 27.1643 112.973 28.4941 115.33 28.4941C117.18 28.4941 118.194 27.6176 119.178 26.59L121.386 29.3706C119.984 31.0026 117.687 32 114.823 32ZM114.733 18.7017C112.973 18.7017 111.869 20.0013 111.869 21.9658V22.2076H117.359V21.9356C117.359 20.0013 116.493 18.7017 114.733 18.7017ZM132.735 31.6373H127.484L122.353 15.77H126.709L128.648 22.1774L130.11 27.9198H130.348L131.81 22.1774L133.69 15.77H137.866L132.735 31.6373ZM152.586 31.6373L147.067 22.4494L144.352 25.774V31.6373H139.818V10.5414H144.352V20.5756H144.531L147.485 16.4954L152.169 10.5414H157.3L150.289 19.2155L157.926 31.6373H152.586ZM161.936 14.0775C160.146 14.0775 159.371 13.1406 159.371 11.8712V11.2063C159.371 9.93693 160.146 9 161.936 9C163.726 9 164.502 9.93693 164.502 11.2063V11.8712C164.502 13.1406 163.726 14.0775 161.936 14.0775ZM159.729 31.6373V15.77H164.144V31.6373H159.729ZM175.761 31.6373H173.136C170.093 31.6373 168.482 30.0355 168.482 27.0131V19.2457H166.274V15.77H167.378C168.572 15.77 168.93 15.1656 168.93 14.0775V11.4783H172.897V15.77H176V19.2457H172.897V28.1616H175.761V31.6373Z" fill="#2C2738"/>
<path fill-rule="evenodd" clip-rule="evenodd" d="M12 0H32C40.6274 0 44 3.37258 44 12V32C44 40.6274 40.6274 44 32 44H12C3.37258 44 0 40.6274 0 32V12C0 3.37258 3.37258 0 12 0Z" fill="#2C2738"/>
<path fill-rule="evenodd" clip-rule="evenodd" d="M17 20.9366V14.9683H24.5974C22.2853 21.3717 21.77 26.0139 23.2929 29.1857L23.3629 29.3223C25.5933 33.4129 29.774 34.007 34.4203 31.5228C35.8797 30.7426 36.4269 28.9332 35.6425 27.4815C34.858 26.0298 33.0391 25.4855 31.5797 26.2658C29.6202 27.3135 29.104 27.2801 28.6767 26.5472C27.8967 24.7627 28.79 20.1332 31.7627 13.1474C32.6 11.1798 31.148 9 29 9H14C12.3431 9 11 10.336 11 11.9841V20.9366C11 22.5847 12.3431 23.9207 14 23.9207C15.6569 23.9207 17 22.5847 17 20.9366ZM18 30C18 32.2091 16.2091 34 14 34C11.7909 34 10 32.2091 10 30C10 27.7909 11.7909 26 14 26C16.2091 26 18 27.7909 18 30Z" fill="white"/>
</svg>
